# xmcd
#
# Track frame offsets:
#	150
#	8090
#	23050
#	34622
#	50460
#	61345
#	76160
#	89112
#	102037
#	112885
#	123547
#	133830
#	147760
#	161975
#	174337
#
# Disc length: 2482 seconds
#
# Revision: 1
# Processed by: cddbd v1.4PL0 Copyright (c) Steve Scherf et al.
# Submitted via: CDmax 1.8
#
DISCID=bf09b00f
DTITLE=Precious Bryant - Fool Me Good
DYEAR=2002
DGENRE=Blues
TTITLE0=Broke And Ain't Got A Dime
TTITLE1=Black Rat Swing
TTITLE2=Blues All Around My Bed
TTITLE3=Fool Me Good
TTITLE4=Precious Bryant Staggerin' Blues
TTITLE5=Don't Let The Devil Ride
TTITLE6=You Don't Want Me No More
TTITLE7=Don't Mess Up A Good Thing
TTITLE8=Don't You Wanna Jump
TTITLE9=Wadn't I Scared
TTITLE10=Fever
TTITLE11=Ups And Downs
TTITLE12=Peepin' Out My Window
TTITLE13=When The Saints Go Marching In
TTITLE14=Georgia Buck
EXTD=
EXTT0=
EXTT1=
EXTT2=
EXTT3=
EXTT4=
EXTT5=
EXTT6=
EXTT7=
EXTT8=
EXTT9=
EXTT10=
EXTT11=
EXTT12=
EXTT13=
EXTT14=
PLAYORDER=
